{
	"asset":{
		"version":"2.0",
		"generator":"Created using the official Cinema 4D glTF Exporter 1.000x290161"
	},
	"scenes":[{
		"nodes":[0,
		2,
		3]
	}],
	"nodes":[{
		"name":"克隆",
		"translation":[0,
		0,
		35.119],
		"rotation":[0,
		0,
		0,
		-1],
		"scale":[1,
		1,
		1],
		"children":[1]
	},
	{
		"name":"CBc1 0",
		"translation":[0,
		38.981,
		0],
		"rotation":[0,
		0,
		0,
		-1],
		"scale":[1,
		1,
		1],
		"mesh":0
	},
	{
		"name":"摄像机",
		"translation":[852.709,
		437.899,
		-187.511],
		"rotation":[0.144,
		-0.758,
		-0.179,
		-0.61],
		"scale":[1,
		1,
		1],
		"camera":0
	},
	{
		"name":"球体",
		"mesh":1
	}],
	"meshes":[{
		"primitives":[{
			"attributes":{
				"POSITION":1,
				"NORMAL":2,
				"TEXCOORD_0":3
			},
			"indices":0,
			"material":0
		}]
	},
	{
		"primitives":[{
			"attributes":{
				"POSITION":5,
				"NORMAL":6,
				"TEXCOORD_0":7
			},
			"indices":4,
			"material":1
		}]
	}],
	"cameras":[{
		"type":"perspective",
		"perspective":{
			"znear":0.01,
			"zfar":10000000000,
			"aspectRatio":1.778,
			"yfov":0.548
		}
	}],
	"accessors":[{
		"bufferView":0,
		"type":"SCALAR",
		"componentType":5123,
		"count":19536,
		"byteOffset":0,
		"min":[1],
		"max":[10127]
	},
	{
		"bufferView":1,
		"type":"VEC3",
		"componentType":5126,
		"count":10128,
		"byteOffset":0,
		"min":[-140.389,
		-75.888,
		-268.239],
		"max":[140.389,
		76.049,
		235.408]
	},
	{
		"bufferView":1,
		"type":"VEC3",
		"componentType":5126,
		"count":10128,
		"byteOffset":12,
		"min":[-1,
		-1,
		-1],
		"max":[1,
		1,
		1]
	},
	{
		"bufferView":1,
		"type":"VEC2",
		"componentType":5126,
		"count":10128,
		"byteOffset":24,
		"min":[0,
		0],
		"max":[0.999,
		0.999]
	},
	{
		"bufferView":2,
		"type":"SCALAR",
		"componentType":5123,
		"count":1584,
		"byteOffset":0,
		"min":[0],
		"max":[322]
	},
	{
		"bufferView":3,
		"type":"VEC3",
		"componentType":5126,
		"count":323,
		"byteOffset":0,
		"min":[-1763.494,
		-1763.494,
		-1763.494],
		"max":[1763.494,
		1763.494,
		1763.494]
	},
	{
		"bufferView":3,
		"type":"VEC3",
		"componentType":5126,
		"count":323,
		"byteOffset":12,
		"min":[-1,
		-1,
		-1],
		"max":[1,
		1,
		1]
	},
	{
		"bufferView":3,
		"type":"VEC2",
		"componentType":5126,
		"count":323,
		"byteOffset":24,
		"min":[0,
		0],
		"max":[1,
		1]
	}],
	"bufferViews":[{
		"buffer":0,
		"byteOffset":0,
		"byteLength":39072,
		"target":34963
	},
	{
		"buffer":0,
		"byteOffset":39072,
		"byteLength":324096,
		"target":34962,
		"byteStride":32
	},
	{
		"buffer":1,
		"byteOffset":0,
		"byteLength":3168,
		"target":34963
	},
	{
		"buffer":1,
		"byteOffset":3168,
		"byteLength":10336,
		"target":34962,
		"byteStride":32
	}],
	"materials":[{
		"pbrMetallicRoughness":{
			"baseColorFactor":[1,
			1,
			1,
			1],
			"metallicFactor":0,
			"roughnessFactor":0.734
		},
		"normalTexture":{
			"index":0,
			"scale":1
		},
		"emissiveTexture":{
			"index":1
		},
		"emissiveFactor":[0.76,
		1,
		1],
		"alphaMode":"OPAQUE",
		"doubleSided":false,
		"name":"exhaust"
	},
	{
		"pbrMetallicRoughness":{
			"baseColorFactor":[1,
			1,
			1,
			0],
			"metallicFactor":1,
			"roughnessFactor":1
		},
		"emissiveFactor":[0,
		0,
		0],
		"alphaMode":"BLEND",
		"doubleSided":false,
		"name":""
	}],
	"buffers":[{
		"uri":"data:application/octet-stream;base64,",
		"byteLength":363168
	},
	{
		"uri":"data:application/octet-stream;base64,",
		"byteLength":13504
	}],
	"images":[{
		"uri":"data:image/jpeg;base64,"
	},
	{
		"uri":"data:image/jpeg;base64,"
	}],
	"samplers":[{
		"magFilter":9729,
		"minFilter":9729,
		"wrapS":10497,
		"wrapT":10497
	},
	{
		"magFilter":9729,
		"minFilter":9729,
		"wrapS":10497,
		"wrapT":10497
	}],
	"textures":[{
		"sampler":0,
		"source":0
	},
	{
		"sampler":1,
		"source":1
	}]
}