{
	"asset":{
		"version":"2.0",
		"generator":"Created using the official Cinema 4D glTF Exporter 1.000x290161"
	},
	"scenes":[{
		"nodes":[0,
		1,
		2,
		3]
	}],
	"nodes":[{
		"name":"平面.3",
		"translation":[278.131,
		135.159,
		-701.234],
		"rotation":[0,
		0,
		0,
		-1],
		"scale":[1,
		1,
		1],
		"mesh":0
	},
	{
		"name":"平面.2",
		"translation":[136.674,
		-57.119,
		495.089],
		"rotation":[0,
		0,
		0,
		-1],
		"scale":[1,
		1,
		1],
		"mesh":1
	},
	{
		"name":"平面.1",
		"translation":[1.824,
		-406.757,
		-7.185],
		"rotation":[0,
		0,
		0,
		-1],
		"scale":[1,
		1,
		1],
		"mesh":2
	},
	{
		"name":"平面",
		"translation":[-130.969,
		0,
		0],
		"rotation":[0,
		0,
		0,
		-1],
		"scale":[1,
		1,
		1],
		"mesh":3
	}],
	"meshes":[{
		"primitives":[{
			"attributes":{
				"POSITION":1,
				"TEXCOORD_0":2
			},
			"indices":0,
			"material":0
		}]
	},
	{
		"primitives":[{
			"attributes":{
				"POSITION":4,
				"TEXCOORD_0":5
			},
			"indices":3,
			"material":1
		}]
	},
	{
		"primitives":[{
			"attributes":{
				"POSITION":7,
				"TEXCOORD_0":8
			},
			"indices":6,
			"material":1
		}]
	},
	{
		"primitives":[{
			"attributes":{
				"POSITION":10,
				"TEXCOORD_0":11
			},
			"indices":9,
			"material":1
		}]
	}],
	"accessors":[{
		"bufferView":0,
		"type":"SCALAR",
		"min":[0],
		"componentType":5123,
		"count":2400,
		"byteOffset":0,
		"max":[440]
	},
	{
		"bufferView":1,
		"type":"VEC3",
		"min":[-755.508,
		0,
		-463.075],
		"componentType":5126,
		"count":441,
		"byteOffset":0,
		"max":[755.508,
		0,
		463.075]
	},
	{
		"bufferView":1,
		"type":"VEC2",
		"min":[0,
		0],
		"componentType":5126,
		"count":441,
		"byteOffset":12,
		"max":[1,
		1]
	},
	{
		"bufferView":2,
		"type":"SCALAR",
		"min":[0],
		"componentType":5123,
		"count":2400,
		"byteOffset":0,
		"max":[440]
	},
	{
		"bufferView":3,
		"type":"VEC3",
		"min":[-1768.512,
		0,
		-936.497],
		"componentType":5126,
		"count":441,
		"byteOffset":0,
		"max":[1768.512,
		0,
		936.497]
	},
	{
		"bufferView":3,
		"type":"VEC2",
		"min":[0,
		0],
		"componentType":5126,
		"count":441,
		"byteOffset":12,
		"max":[1,
		1]
	},
	{
		"bufferView":4,
		"type":"SCALAR",
		"min":[0],
		"componentType":5123,
		"count":2400,
		"byteOffset":0,
		"max":[440]
	},
	{
		"bufferView":5,
		"type":"VEC3",
		"min":[-3000,
		0,
		-3000],
		"componentType":5126,
		"count":441,
		"byteOffset":0,
		"max":[3000,
		0,
		3000]
	},
	{
		"bufferView":5,
		"type":"VEC2",
		"min":[0,
		0],
		"componentType":5126,
		"count":441,
		"byteOffset":12,
		"max":[1,
		1]
	},
	{
		"bufferView":6,
		"type":"SCALAR",
		"min":[0],
		"componentType":5123,
		"count":2400,
		"byteOffset":0,
		"max":[440]
	},
	{
		"bufferView":7,
		"type":"VEC3",
		"min":[-1683.092,
		0,
		-936.497],
		"componentType":5126,
		"count":441,
		"byteOffset":0,
		"max":[1683.092,
		0,
		936.497]
	},
	{
		"bufferView":7,
		"type":"VEC2",
		"min":[0,
		0],
		"componentType":5126,
		"count":441,
		"byteOffset":12,
		"max":[1,
		1]
	}],
	"bufferViews":[{
		"buffer":0,
		"byteOffset":0,
		"byteLength":4800,
		"target":34963
	},
	{
		"buffer":0,
		"byteOffset":4800,
		"byteLength":8820,
		"target":34962,
		"byteStride":20
	},
	{
		"buffer":1,
		"byteOffset":0,
		"byteLength":4800,
		"target":34963
	},
	{
		"buffer":1,
		"byteOffset":4800,
		"byteLength":8820,
		"target":34962,
		"byteStride":20
	},
	{
		"buffer":2,
		"byteOffset":0,
		"byteLength":4800,
		"target":34963
	},
	{
		"buffer":2,
		"byteOffset":4800,
		"byteLength":8820,
		"target":34962,
		"byteStride":20
	},
	{
		"buffer":3,
		"byteOffset":0,
		"byteLength":4800,
		"target":34963
	},
	{
		"buffer":3,
		"byteOffset":4800,
		"byteLength":8820,
		"target":34962,
		"byteStride":20
	}],
	"buffers":[{
		"uri":"data:application/octet-stream;base64,",
		"byteLength":13620
	},
	{
		"uri":"data:application/octet-stream;base64,",
		"byteLength":13620
	},
	{
		"uri":"data:application/octet-stream;base64,",
		"byteLength":13620
	},
	{
		"uri":"data:application/octet-stream;base64,",
		"byteLength":13620
	}],
	"images":[{
		"uri":"data:image/jpeg;base64,"
	}],
	"samplers":[{
		"magFilter":9729,
		"minFilter":9729,
		"wrapS":10497,
		"wrapT":10497
	},
	{
		"magFilter":9729,
		"minFilter":9729,
		"wrapS":10497,
		"wrapT":10497
	}],
	"textures":[{
		"sampler":0,
		"source":0
	},
	{
		"sampler":1,
		"source":0
	}],
	"materials":[{
		"pbrMetallicRoughness":{
			"metallicFactor":1,
			"baseColorFactor":[1,
			1,
			1,
			1],
			"roughnessFactor":0.1
		},
		"normalTexture":{
			"index":0,
			"scale":0.2
		},
		"emissiveFactor":[0,
		0,
		0],
		"alphaMode":"OPAQUE",
		"doubleSided":false,
		"name":"材质"
	},
	{
		"pbrMetallicRoughness":{
			"metallicFactor":1,
			"baseColorFactor":[1,
			1,
			1,
			1],
			"roughnessFactor":0.1
		},
		"normalTexture":{
			"index":1,
			"scale":0.2
		},
		"emissiveFactor":[0,
		0,
		0],
		"alphaMode":"OPAQUE",
		"doubleSided":false,
		"name":"材质_1"
	}]
}